<svg width="37" height="37" viewBox="0 0 37 37" fill="none" xmlns="http://www.w3.org/2000/svg">
<rect width="37" height="37" fill="black"/>
<path d="M12.04 25.9C11.04 25.9 10.19 25.6533 9.49 25.16C8.79 24.66 8.25667 23.9533 7.89 23.04C7.52333 22.1267 7.34 21.0467 7.34 19.8C7.34 18.5267 7.47333 17.4333 7.74 16.52C8.01333 15.6067 8.38 14.85 8.84 14.25C9.3 13.6433 9.82 13.1667 10.4 12.82C10.9867 12.4733 11.5933 12.2267 12.22 12.08C12.8533 11.9333 13.4733 11.86 14.08 11.86C14.94 11.86 15.59 11.9533 16.03 12.14C16.4767 12.3267 16.7 12.6 16.7 12.96C16.7 13.2 16.6367 13.36 16.51 13.44C16.3833 13.52 16.2 13.5533 15.96 13.54C15.72 13.5267 15.43 13.5 15.09 13.46C14.7567 13.42 14.38 13.4 13.96 13.4C13.3533 13.4 12.8267 13.4967 12.38 13.69C11.94 13.8833 11.5733 14.1633 11.28 14.53C10.9933 14.8967 10.7767 15.34 10.63 15.86C10.49 16.38 10.42 16.9667 10.42 17.62C10.42 18.46 10.54 19.2367 10.78 19.95C11.02 20.6567 11.3967 21.2267 11.91 21.66C12.43 22.0867 13.1067 22.3 13.94 22.3C14.3867 22.3 14.8033 22.2267 15.19 22.08C15.5767 21.9333 15.8867 21.7067 16.12 21.4C16.36 21.0867 16.48 20.6867 16.48 20.2C16.48 20.04 16.4567 19.9067 16.41 19.8C16.37 19.6933 16.2967 19.6167 16.19 19.57C16.09 19.5233 15.9533 19.5 15.78 19.5C15.58 19.5 15.38 19.5033 15.18 19.51C14.98 19.5167 14.78 19.52 14.58 19.52C14.02 19.52 13.6533 19.4367 13.48 19.27C13.3067 19.0967 13.22 18.9067 13.22 18.7C13.22 18.4667 13.31 18.2633 13.49 18.09C13.67 17.9167 14.0333 17.84 14.58 17.86C14.9333 17.8667 15.28 17.88 15.62 17.9C15.9667 17.92 16.3133 17.9467 16.66 17.98C17.0933 18.02 17.3933 18.1433 17.56 18.35C17.7267 18.55 17.82 18.82 17.84 19.16C17.8533 19.3067 17.8633 19.4967 17.87 19.73C17.8767 19.9633 17.8867 20.2233 17.9 20.51C17.9 20.5833 17.9 20.66 17.9 20.74C17.9067 20.8133 17.9133 20.89 17.92 20.97C17.9267 21.03 17.93 21.0933 17.93 21.16C17.93 21.22 17.93 21.2833 17.93 21.35C17.9367 21.41 17.94 21.4733 17.94 21.54C17.9467 21.6533 17.95 21.77 17.95 21.89C17.9567 22.0033 17.9633 22.12 17.97 22.24C17.9767 22.3267 17.98 22.4167 17.98 22.51C17.98 22.5967 17.9833 22.6867 17.99 22.78C17.9967 22.8667 18 22.9533 18 23.04C18.0067 23.12 18.01 23.2067 18.01 23.3C18.03 23.9467 18.0467 24.5667 18.06 25.16C18.08 25.7467 18.0933 26.22 18.1 26.58C18.1067 26.9133 18.02 27.1633 17.84 27.33C17.66 27.4967 17.4633 27.58 17.25 27.58C17.0367 27.58 16.84 27.4967 16.66 27.33C16.48 27.1633 16.3933 26.9267 16.4 26.62C16.42 26.1867 16.4467 25.79 16.48 25.43C16.5133 25.0633 16.5333 24.68 16.54 24.28C16.54 24.1067 16.52 23.98 16.48 23.9C16.4467 23.82 16.3733 23.78 16.26 23.78C16.1067 23.78 15.93 23.8867 15.73 24.1C15.5367 24.3133 15.2867 24.56 14.98 24.84C14.68 25.12 14.2933 25.3667 13.82 25.58C13.3467 25.7933 12.7533 25.9 12.04 25.9ZM9.3 21.98C9.52 21.98 9.70333 21.9033 9.85 21.75C10.0033 21.59 10.08 21.38 10.08 21.12C10.08 20.84 10.0033 20.6233 9.85 20.47C9.69667 20.3167 9.48 20.24 9.2 20.24C8.96 20.24 8.76333 20.3167 8.61 20.47C8.45667 20.6167 8.38 20.82 8.38 21.08C8.38 21.3867 8.46 21.6133 8.62 21.76C8.78667 21.9067 9.01333 21.98 9.3 21.98ZM10.62 24.3C10.9 24.3 11.1233 24.23 11.29 24.09C11.4567 23.95 11.54 23.7467 11.54 23.48C11.54 23.1867 11.47 22.96 11.33 22.8C11.1967 22.64 10.9533 22.56 10.6 22.56C10.3733 22.56 10.1833 22.6433 10.03 22.81C9.87667 22.97 9.8 23.2 9.8 23.5C9.8 23.7467 9.86667 23.9433 10 24.09C10.1333 24.23 10.34 24.3 10.62 24.3ZM17.26 20.98C17.22 20.98 17.18 20.98 17.14 20.98C17.1 20.98 17.06 20.98 17.02 20.98C16.94 20.98 16.8433 20.9367 16.73 20.85C16.6167 20.7633 16.56 20.62 16.56 20.42C16.56 20.22 16.6067 20.0767 16.7 19.99C16.8 19.9033 16.9 19.86 17 19.86C17.04 19.86 17.07 19.86 17.09 19.86C17.11 19.86 17.14 19.86 17.18 19.86C17.3733 19.86 17.5067 19.9033 17.58 19.99C17.66 20.0767 17.7 20.2067 17.7 20.38C17.7 20.62 17.66 20.7767 17.58 20.85C17.5 20.9233 17.3933 20.9667 17.26 20.98ZM11.82 10.78C11.9333 11 12.04 11.2233 12.14 11.45C12.24 11.67 12.3333 11.9 12.42 12.14C12.5133 12.3667 12.5367 12.5867 12.49 12.8C12.45 13.0067 12.3133 13.16 12.08 13.26C11.8933 13.34 11.7033 13.3133 11.51 13.18C11.3167 13.04 11.1533 12.8267 11.02 12.54C10.9333 12.34 10.8467 12.1367 10.76 11.93C10.6733 11.7233 10.5933 11.52 10.52 11.32C10.4 10.9667 10.34 10.6767 10.34 10.45C10.3467 10.2233 10.48 10.0667 10.74 9.98C10.9733 9.9 11.17 9.93 11.33 10.07C11.49 10.2033 11.6533 10.44 11.82 10.78ZM10.46 14L9.58 15.1C8.94 14.54 8.47333 14.0967 8.18 13.77C7.89333 13.4433 7.73333 13.1867 7.7 13C7.67333 12.8067 7.73333 12.6333 7.88 12.48C8.12 12.24 8.41667 12.23 8.77 12.45C9.13 12.67 9.69333 13.1867 10.46 14ZM20.1084 24.86C20.0818 23.74 20.0618 22.6 20.0484 21.44C20.0351 20.2733 20.0218 19.12 20.0084 17.98C20.5884 18.02 20.9984 17.99 21.2384 17.89C21.4851 17.79 21.6084 17.62 21.6084 17.38C21.6084 17.22 21.5584 17.0933 21.4584 17C21.3584 16.9 21.1884 16.8333 20.9484 16.8C20.7151 16.76 20.3951 16.7467 19.9884 16.76C19.9884 16.6 19.9884 16.4367 19.9884 16.27C19.9884 16.1033 19.9884 15.94 19.9884 15.78C20.8818 15.8 21.4718 15.7467 21.7584 15.62C22.0451 15.4933 22.1884 15.3067 22.1884 15.06C22.1884 14.8867 22.1218 14.7533 21.9884 14.66C21.8618 14.5667 21.6384 14.51 21.3184 14.49C20.9984 14.4633 20.5584 14.4667 19.9984 14.5C19.9918 14.4533 19.9884 14.4133 19.9884 14.38C19.9884 14.34 19.9884 14.3 19.9884 14.26C19.9884 13.5267 20.1351 12.9833 20.4284 12.63C20.7218 12.27 21.2284 12.0933 21.9484 12.1C22.5618 12.1 23.0151 12.3 23.3084 12.7C23.6018 13.1 23.7218 13.68 23.6684 14.44C23.6284 15.1 23.5718 15.7567 23.4984 16.41C23.4251 17.0633 23.3684 17.7267 23.3284 18.4C23.3218 18.5867 23.3451 18.7233 23.3984 18.81C23.4518 18.89 23.5684 18.9467 23.7484 18.98C24.2484 19.06 24.7484 19.12 25.2484 19.16C25.7551 19.2 26.2684 19.2333 26.7884 19.26C26.9618 19.2667 27.0784 19.2467 27.1384 19.2C27.2051 19.1533 27.2418 19.0267 27.2484 18.82C27.3018 17.8067 27.3451 16.81 27.3784 15.83C27.4184 14.85 27.4618 13.9067 27.5084 13C27.5284 12.6467 27.6018 12.37 27.7284 12.17C27.8551 11.9633 28.0618 11.86 28.3484 11.86C28.6484 11.86 28.8551 11.9633 28.9684 12.17C29.0884 12.3767 29.1484 12.6867 29.1484 13.1C29.1618 15.12 29.1584 17.1767 29.1384 19.27C29.1184 21.3633 29.0818 23.46 29.0284 25.56C29.0218 25.96 28.9384 26.2733 28.7784 26.5C28.6251 26.7267 28.3618 26.84 27.9884 26.84C27.6084 26.84 27.3351 26.7133 27.1684 26.46C27.0018 26.2133 26.9218 25.8867 26.9284 25.48C26.9484 24.78 26.9818 24.09 27.0284 23.41C27.0751 22.73 27.1084 22.0467 27.1284 21.36C27.1351 21.22 27.1118 21.1167 27.0584 21.05C27.0118 20.9767 26.9284 20.93 26.8084 20.91C26.7284 20.8967 26.6518 20.8867 26.5784 20.88C26.5051 20.8667 26.4284 20.8567 26.3484 20.85C26.2818 20.8433 26.2118 20.8367 26.1384 20.83C26.0718 20.8233 26.0018 20.8167 25.9284 20.81C25.8551 20.8033 25.7818 20.7967 25.7084 20.79C25.6484 20.7833 25.5884 20.7767 25.5284 20.77C25.4751 20.7633 25.4184 20.7567 25.3584 20.75C25.3051 20.7433 25.2484 20.74 25.1884 20.74C25.0618 20.7267 24.9351 20.7167 24.8084 20.71C24.6884 20.6967 24.5618 20.6867 24.4284 20.68C24.3484 20.6733 24.2684 20.6667 24.1884 20.66C24.1084 20.6467 24.0318 20.64 23.9584 20.64C23.8918 20.6333 23.8218 20.6267 23.7484 20.62C23.6684 20.6133 23.5884 20.6067 23.5084 20.6C23.4284 20.5933 23.3484 20.5867 23.2684 20.58C23.2018 20.5733 23.1284 20.57 23.0484 20.57C22.9751 20.57 22.9018 20.5667 22.8284 20.56C22.6618 20.5467 22.5184 20.58 22.3984 20.66C22.2784 20.74 22.2084 20.8667 22.1884 21.04C22.1284 21.7 22.0751 22.3733 22.0284 23.06C21.9818 23.74 21.9218 24.3867 21.8484 25C21.8218 25.2667 21.7351 25.5 21.5884 25.7C21.4418 25.9 21.2284 26 20.9484 26C20.6484 26 20.4351 25.8967 20.3084 25.69C20.1884 25.4767 20.1218 25.2 20.1084 24.86ZM22.4484 20.02C22.3018 20.02 22.1884 19.9767 22.1084 19.89C22.0284 19.8033 21.9884 19.66 21.9884 19.46C21.9884 19.3467 22.0351 19.2467 22.1284 19.16C22.2284 19.0667 22.3618 19.02 22.5284 19.02C22.6618 19.02 22.7718 19.07 22.8584 19.17C22.9451 19.27 22.9884 19.3867 22.9884 19.52C22.9884 19.6667 22.9351 19.7867 22.8284 19.88C22.7284 19.9733 22.6018 20.02 22.4484 20.02ZM29.5684 16.24C29.9018 16.26 30.1618 16.3233 30.3484 16.43C30.5351 16.53 30.6284 16.7 30.6284 16.94C30.6284 17.16 30.5284 17.31 30.3284 17.39C30.1284 17.47 29.8618 17.5267 29.5284 17.56C29.1618 17.58 28.7218 17.6 28.2084 17.62C27.7018 17.6333 27.1884 17.64 26.6684 17.64C26.2218 17.64 25.9051 17.58 25.7184 17.46C25.5384 17.3333 25.4484 17.1467 25.4484 16.9C25.4484 16.6467 25.5551 16.4667 25.7684 16.36C25.9884 16.2533 26.2951 16.2 26.6884 16.2C27.1884 16.2 27.6718 16.2033 28.1384 16.21C28.6118 16.21 29.0884 16.22 29.5684 16.24ZM24.7284 25.02C24.3618 25.02 24.0618 24.9067 23.8284 24.68C23.6018 24.4467 23.4884 24.1267 23.4884 23.72C23.4884 23.4467 23.5818 23.21 23.7684 23.01C23.9551 22.8033 24.2684 22.7 24.7084 22.7C25.0418 22.7 25.3084 22.7967 25.5084 22.99C25.7084 23.1767 25.8084 23.4867 25.8084 23.92C25.8084 24.2267 25.6984 24.4867 25.4784 24.7C25.2584 24.9133 25.0084 25.02 24.7284 25.02ZM29.3684 13.32C29.8018 13.3467 30.1218 13.4167 30.3284 13.53C30.5418 13.6433 30.6484 13.82 30.6484 14.06C30.6484 14.3267 30.5251 14.5033 30.2784 14.59C30.0384 14.67 29.7084 14.7 29.2884 14.68C28.8418 14.66 28.3918 14.6333 27.9384 14.6C27.4918 14.56 27.0418 14.52 26.5884 14.48C26.1818 14.44 25.8851 14.3667 25.6984 14.26C25.5184 14.1467 25.4284 13.9867 25.4284 13.78C25.4284 13.56 25.5284 13.4067 25.7284 13.32C25.9284 13.2267 26.2484 13.1867 26.6884 13.2C27.1418 13.2067 27.5884 13.22 28.0284 13.24C28.4751 13.26 28.9218 13.2867 29.3684 13.32Z" fill="url(#paint0_radial_54_126)" fill-opacity="0.5"/>
<defs>
<radialGradient id="paint0_radial_54_126" cx="0" cy="0" r="1" gradientUnits="userSpaceOnUse" gradientTransform="translate(19 18) rotate(90) scale(13 12.5)">
<stop stop-color="#FF4081"/>
<stop offset="0.5" stop-color="#FF7661"/>
<stop offset="1" stop-color="#18FFFF"/>
</radialGradient>
</defs>
</svg>
