<svg width="25" height="26" viewBox="0 0 25 26" fill="none" xmlns="http://www.w3.org/2000/svg">
<path d="M5.54 20.9C4.54 20.9 3.69 20.6533 2.99 20.16C2.29 19.66 1.75667 18.9533 1.39 18.04C1.02333 17.1267 0.84 16.0467 0.84 14.8C0.84 13.5267 0.973333 12.4333 1.24 11.52C1.51333 10.6067 1.88 9.85 2.34 9.25C2.8 8.64333 3.32 8.16667 3.9 7.82C4.48667 7.47333 5.09333 7.22667 5.72 7.08C6.35333 6.93333 6.97333 6.86 7.58 6.86C8.44 6.86 9.09 6.95333 9.53 7.14C9.97667 7.32667 10.2 7.6 10.2 7.96C10.2 8.2 10.1367 8.36 10.01 8.44C9.88333 8.52 9.7 8.55333 9.46 8.54C9.22 8.52667 8.93 8.5 8.59 8.46C8.25667 8.42 7.88 8.4 7.46 8.4C6.85333 8.4 6.32667 8.49667 5.88 8.69C5.44 8.88333 5.07333 9.16333 4.78 9.53C4.49333 9.89667 4.27667 10.34 4.13 10.86C3.99 11.38 3.92 11.9667 3.92 12.62C3.92 13.46 4.04 14.2367 4.28 14.95C4.52 15.6567 4.89667 16.2267 5.41 16.66C5.93 17.0867 6.60667 17.3 7.44 17.3C7.88667 17.3 8.30333 17.2267 8.69 17.08C9.07667 16.9333 9.38667 16.7067 9.62 16.4C9.86 16.0867 9.98 15.6867 9.98 15.2C9.98 15.04 9.95667 14.9067 9.91 14.8C9.87 14.6933 9.79667 14.6167 9.69 14.57C9.59 14.5233 9.45333 14.5 9.28 14.5C9.08 14.5 8.88 14.5033 8.68 14.51C8.48 14.5167 8.28 14.52 8.08 14.52C7.52 14.52 7.15333 14.4367 6.98 14.27C6.80667 14.0967 6.72 13.9067 6.72 13.7C6.72 13.4667 6.81 13.2633 6.99 13.09C7.17 12.9167 7.53333 12.84 8.08 12.86C8.43333 12.8667 8.78 12.88 9.12 12.9C9.46667 12.92 9.81333 12.9467 10.16 12.98C10.5933 13.02 10.8933 13.1433 11.06 13.35C11.2267 13.55 11.32 13.82 11.34 14.16C11.3533 14.3067 11.3633 14.4967 11.37 14.73C11.3767 14.9633 11.3867 15.2233 11.4 15.51C11.4 15.5833 11.4 15.66 11.4 15.74C11.4067 15.8133 11.4133 15.89 11.42 15.97C11.4267 16.03 11.43 16.0933 11.43 16.16C11.43 16.22 11.43 16.2833 11.43 16.35C11.4367 16.41 11.44 16.4733 11.44 16.54C11.4467 16.6533 11.45 16.77 11.45 16.89C11.4567 17.0033 11.4633 17.12 11.47 17.24C11.4767 17.3267 11.48 17.4167 11.48 17.51C11.48 17.5967 11.4833 17.6867 11.49 17.78C11.4967 17.8667 11.5 17.9533 11.5 18.04C11.5067 18.12 11.51 18.2067 11.51 18.3C11.53 18.9467 11.5467 19.5667 11.56 20.16C11.58 20.7467 11.5933 21.22 11.6 21.58C11.6067 21.9133 11.52 22.1633 11.34 22.33C11.16 22.4967 10.9633 22.58 10.75 22.58C10.5367 22.58 10.34 22.4967 10.16 22.33C9.98 22.1633 9.89333 21.9267 9.9 21.62C9.92 21.1867 9.94667 20.79 9.98 20.43C10.0133 20.0633 10.0333 19.68 10.04 19.28C10.04 19.1067 10.02 18.98 9.98 18.9C9.94667 18.82 9.87333 18.78 9.76 18.78C9.60667 18.78 9.43 18.8867 9.23 19.1C9.03667 19.3133 8.78667 19.56 8.48 19.84C8.18 20.12 7.79333 20.3667 7.32 20.58C6.84667 20.7933 6.25333 20.9 5.54 20.9ZM2.8 16.98C3.02 16.98 3.20333 16.9033 3.35 16.75C3.50333 16.59 3.58 16.38 3.58 16.12C3.58 15.84 3.50333 15.6233 3.35 15.47C3.19667 15.3167 2.98 15.24 2.7 15.24C2.46 15.24 2.26333 15.3167 2.11 15.47C1.95667 15.6167 1.88 15.82 1.88 16.08C1.88 16.3867 1.96 16.6133 2.12 16.76C2.28667 16.9067 2.51333 16.98 2.8 16.98ZM4.12 19.3C4.4 19.3 4.62333 19.23 4.79 19.09C4.95667 18.95 5.04 18.7467 5.04 18.48C5.04 18.1867 4.97 17.96 4.83 17.8C4.69667 17.64 4.45333 17.56 4.1 17.56C3.87333 17.56 3.68333 17.6433 3.53 17.81C3.37667 17.97 3.3 18.2 3.3 18.5C3.3 18.7467 3.36667 18.9433 3.5 19.09C3.63333 19.23 3.84 19.3 4.12 19.3ZM10.76 15.98C10.72 15.98 10.68 15.98 10.64 15.98C10.6 15.98 10.56 15.98 10.52 15.98C10.44 15.98 10.3433 15.9367 10.23 15.85C10.1167 15.7633 10.06 15.62 10.06 15.42C10.06 15.22 10.1067 15.0767 10.2 14.99C10.3 14.9033 10.4 14.86 10.5 14.86C10.54 14.86 10.57 14.86 10.59 14.86C10.61 14.86 10.64 14.86 10.68 14.86C10.8733 14.86 11.0067 14.9033 11.08 14.99C11.16 15.0767 11.2 15.2067 11.2 15.38C11.2 15.62 11.16 15.7767 11.08 15.85C11 15.9233 10.8933 15.9667 10.76 15.98ZM5.32 5.78C5.43333 6 5.54 6.22333 5.64 6.45C5.74 6.67 5.83333 6.9 5.92 7.14C6.01333 7.36667 6.03667 7.58667 5.99 7.8C5.95 8.00667 5.81333 8.16 5.58 8.26C5.39333 8.34 5.20333 8.31333 5.01 8.18C4.81667 8.04 4.65333 7.82667 4.52 7.54C4.43333 7.34 4.34667 7.13667 4.26 6.93C4.17333 6.72333 4.09333 6.52 4.02 6.32C3.9 5.96667 3.84 5.67667 3.84 5.45C3.84667 5.22333 3.98 5.06667 4.24 4.98C4.47333 4.9 4.67 4.93 4.83 5.07C4.99 5.20333 5.15333 5.44 5.32 5.78ZM3.96 9L3.08 10.1C2.44 9.54 1.97333 9.09667 1.68 8.77C1.39333 8.44333 1.23333 8.18667 1.2 8C1.17333 7.80667 1.23333 7.63333 1.38 7.48C1.62 7.24 1.91667 7.23 2.27 7.45C2.63 7.67 3.19333 8.18667 3.96 9ZM13.6084 19.86C13.5818 18.74 13.5618 17.6 13.5484 16.44C13.5351 15.2733 13.5218 14.12 13.5084 12.98C14.0884 13.02 14.4984 12.99 14.7384 12.89C14.9851 12.79 15.1084 12.62 15.1084 12.38C15.1084 12.22 15.0584 12.0933 14.9584 12C14.8584 11.9 14.6884 11.8333 14.4484 11.8C14.2151 11.76 13.8951 11.7467 13.4884 11.76C13.4884 11.6 13.4884 11.4367 13.4884 11.27C13.4884 11.1033 13.4884 10.94 13.4884 10.78C14.3818 10.8 14.9718 10.7467 15.2584 10.62C15.5451 10.4933 15.6884 10.3067 15.6884 10.06C15.6884 9.88667 15.6218 9.75333 15.4884 9.66C15.3618 9.56667 15.1384 9.51 14.8184 9.49C14.4984 9.46333 14.0584 9.46667 13.4984 9.5C13.4918 9.45333 13.4884 9.41333 13.4884 9.38C13.4884 9.34 13.4884 9.3 13.4884 9.26C13.4884 8.52667 13.6351 7.98333 13.9284 7.63C14.2218 7.27 14.7284 7.09333 15.4484 7.1C16.0618 7.1 16.5151 7.3 16.8084 7.7C17.1018 8.1 17.2218 8.68 17.1684 9.44C17.1284 10.1 17.0718 10.7567 16.9984 11.41C16.9251 12.0633 16.8684 12.7267 16.8284 13.4C16.8218 13.5867 16.8451 13.7233 16.8984 13.81C16.9518 13.89 17.0684 13.9467 17.2484 13.98C17.7484 14.06 18.2484 14.12 18.7484 14.16C19.2551 14.2 19.7684 14.2333 20.2884 14.26C20.4618 14.2667 20.5784 14.2467 20.6384 14.2C20.7051 14.1533 20.7418 14.0267 20.7484 13.82C20.8018 12.8067 20.8451 11.81 20.8784 10.83C20.9184 9.85 20.9618 8.90667 21.0084 8C21.0284 7.64667 21.1018 7.37 21.2284 7.17C21.3551 6.96333 21.5618 6.86 21.8484 6.86C22.1484 6.86 22.3551 6.96333 22.4684 7.17C22.5884 7.37667 22.6484 7.68667 22.6484 8.1C22.6618 10.12 22.6584 12.1767 22.6384 14.27C22.6184 16.3633 22.5818 18.46 22.5284 20.56C22.5218 20.96 22.4384 21.2733 22.2784 21.5C22.1251 21.7267 21.8618 21.84 21.4884 21.84C21.1084 21.84 20.8351 21.7133 20.6684 21.46C20.5018 21.2133 20.4218 20.8867 20.4284 20.48C20.4484 19.78 20.4818 19.09 20.5284 18.41C20.5751 17.73 20.6084 17.0467 20.6284 16.36C20.6351 16.22 20.6118 16.1167 20.5584 16.05C20.5118 15.9767 20.4284 15.93 20.3084 15.91C20.2284 15.8967 20.1518 15.8867 20.0784 15.88C20.0051 15.8667 19.9284 15.8567 19.8484 15.85C19.7818 15.8433 19.7118 15.8367 19.6384 15.83C19.5718 15.8233 19.5018 15.8167 19.4284 15.81C19.3551 15.8033 19.2818 15.7967 19.2084 15.79C19.1484 15.7833 19.0884 15.7767 19.0284 15.77C18.9751 15.7633 18.9184 15.7567 18.8584 15.75C18.8051 15.7433 18.7484 15.74 18.6884 15.74C18.5618 15.7267 18.4351 15.7167 18.3084 15.71C18.1884 15.6967 18.0618 15.6867 17.9284 15.68C17.8484 15.6733 17.7684 15.6667 17.6884 15.66C17.6084 15.6467 17.5318 15.64 17.4584 15.64C17.3918 15.6333 17.3218 15.6267 17.2484 15.62C17.1684 15.6133 17.0884 15.6067 17.0084 15.6C16.9284 15.5933 16.8484 15.5867 16.7684 15.58C16.7018 15.5733 16.6284 15.57 16.5484 15.57C16.4751 15.57 16.4018 15.5667 16.3284 15.56C16.1618 15.5467 16.0184 15.58 15.8984 15.66C15.7784 15.74 15.7084 15.8667 15.6884 16.04C15.6284 16.7 15.5751 17.3733 15.5284 18.06C15.4818 18.74 15.4218 19.3867 15.3484 20C15.3218 20.2667 15.2351 20.5 15.0884 20.7C14.9418 20.9 14.7284 21 14.4484 21C14.1484 21 13.9351 20.8967 13.8084 20.69C13.6884 20.4767 13.6218 20.2 13.6084 19.86ZM15.9484 15.02C15.8018 15.02 15.6884 14.9767 15.6084 14.89C15.5284 14.8033 15.4884 14.66 15.4884 14.46C15.4884 14.3467 15.5351 14.2467 15.6284 14.16C15.7284 14.0667 15.8618 14.02 16.0284 14.02C16.1618 14.02 16.2718 14.07 16.3584 14.17C16.4451 14.27 16.4884 14.3867 16.4884 14.52C16.4884 14.6667 16.4351 14.7867 16.3284 14.88C16.2284 14.9733 16.1018 15.02 15.9484 15.02ZM23.0684 11.24C23.4018 11.26 23.6618 11.3233 23.8484 11.43C24.0351 11.53 24.1284 11.7 24.1284 11.94C24.1284 12.16 24.0284 12.31 23.8284 12.39C23.6284 12.47 23.3618 12.5267 23.0284 12.56C22.6618 12.58 22.2218 12.6 21.7084 12.62C21.2018 12.6333 20.6884 12.64 20.1684 12.64C19.7218 12.64 19.4051 12.58 19.2184 12.46C19.0384 12.3333 18.9484 12.1467 18.9484 11.9C18.9484 11.6467 19.0551 11.4667 19.2684 11.36C19.4884 11.2533 19.7951 11.2 20.1884 11.2C20.6884 11.2 21.1718 11.2033 21.6384 11.21C22.1118 11.21 22.5884 11.22 23.0684 11.24ZM18.2284 20.02C17.8618 20.02 17.5618 19.9067 17.3284 19.68C17.1018 19.4467 16.9884 19.1267 16.9884 18.72C16.9884 18.4467 17.0818 18.21 17.2684 18.01C17.4551 17.8033 17.7684 17.7 18.2084 17.7C18.5418 17.7 18.8084 17.7967 19.0084 17.99C19.2084 18.1767 19.3084 18.4867 19.3084 18.92C19.3084 19.2267 19.1984 19.4867 18.9784 19.7C18.7584 19.9133 18.5084 20.02 18.2284 20.02ZM22.8684 8.32C23.3018 8.34667 23.6218 8.41667 23.8284 8.53C24.0418 8.64333 24.1484 8.82 24.1484 9.06C24.1484 9.32667 24.0251 9.50333 23.7784 9.59C23.5384 9.67 23.2084 9.7 22.7884 9.68C22.3418 9.66 21.8918 9.63333 21.4384 9.6C20.9918 9.56 20.5418 9.52 20.0884 9.48C19.6818 9.44 19.3851 9.36667 19.1984 9.26C19.0184 9.14667 18.9284 8.98667 18.9284 8.78C18.9284 8.56 19.0284 8.40667 19.2284 8.32C19.4284 8.22667 19.7484 8.18667 20.1884 8.2C20.6418 8.20667 21.0884 8.22 21.5284 8.24C21.9751 8.26 22.4218 8.28667 22.8684 8.32Z" fill="url(#paint0_radial_54_127)" fill-opacity="0.5"/>
<defs>
<radialGradient id="paint0_radial_54_127" cx="0" cy="0" r="1" gradientUnits="userSpaceOnUse" gradientTransform="translate(12.5 13) rotate(90) scale(13 12.5)">
<stop stop-color="#FF4081"/>
<stop offset="0.5" stop-color="#FF7661"/>
<stop offset="1" stop-color="#18FFFF"/>
</radialGradient>
</defs>
</svg>
