<svg width="39" height="41" viewBox="0 0 39 41" fill="none" xmlns="http://www.w3.org/2000/svg">
<path d="M8.864 32.84C7.264 32.84 5.904 32.4453 4.784 31.656C3.664 30.856 2.81067 29.7253 2.224 28.264C1.63733 26.8027 1.344 25.0747 1.344 23.08C1.344 21.0427 1.55733 19.2933 1.984 17.832C2.42133 16.3707 3.008 15.16 3.744 14.2C4.48 13.2293 5.312 12.4667 6.24 11.912C7.17867 11.3573 8.14933 10.9627 9.152 10.728C10.1653 10.4933 11.1573 10.376 12.128 10.376C13.504 10.376 14.544 10.5253 15.248 10.824C15.9627 11.1227 16.32 11.56 16.32 12.136C16.32 12.52 16.2187 12.776 16.016 12.904C15.8133 13.032 15.52 13.0853 15.136 13.064C14.752 13.0427 14.288 13 13.744 12.936C13.2107 12.872 12.608 12.84 11.936 12.84C10.9653 12.84 10.1227 12.9947 9.408 13.304C8.704 13.6133 8.11733 14.0613 7.648 14.648C7.18933 15.2347 6.84267 15.944 6.608 16.776C6.384 17.608 6.272 18.5467 6.272 19.592C6.272 20.936 6.464 22.1787 6.848 23.32C7.232 24.4507 7.83467 25.3627 8.656 26.056C9.488 26.7387 10.5707 27.08 11.904 27.08C12.6187 27.08 13.2853 26.9627 13.904 26.728C14.5227 26.4933 15.0187 26.1307 15.392 25.64C15.776 25.1387 15.968 24.4987 15.968 23.72C15.968 23.464 15.9307 23.2507 15.856 23.08C15.792 22.9093 15.6747 22.7867 15.504 22.712C15.344 22.6373 15.1253 22.6 14.848 22.6C14.528 22.6 14.208 22.6053 13.888 22.616C13.568 22.6267 13.248 22.632 12.928 22.632C12.032 22.632 11.4453 22.4987 11.168 22.232C10.8907 21.9547 10.752 21.6507 10.752 21.32C10.752 20.9467 10.896 20.6213 11.184 20.344C11.472 20.0667 12.0533 19.944 12.928 19.976C13.4933 19.9867 14.048 20.008 14.592 20.04C15.1467 20.072 15.7013 20.1147 16.256 20.168C16.9493 20.232 17.4293 20.4293 17.696 20.76C17.9627 21.08 18.112 21.512 18.144 22.056C18.1653 22.2907 18.1813 22.5947 18.192 22.968C18.2027 23.3413 18.2187 23.7573 18.24 24.216C18.24 24.3333 18.24 24.456 18.24 24.584C18.2507 24.7013 18.2613 24.824 18.272 24.952C18.2827 25.048 18.288 25.1493 18.288 25.256C18.288 25.352 18.288 25.4533 18.288 25.56C18.2987 25.656 18.304 25.7573 18.304 25.864C18.3147 26.0453 18.32 26.232 18.32 26.424C18.3307 26.6053 18.3413 26.792 18.352 26.984C18.3627 27.1227 18.368 27.2667 18.368 27.416C18.368 27.5547 18.3733 27.6987 18.384 27.848C18.3947 27.9867 18.4 28.1253 18.4 28.264C18.4107 28.392 18.416 28.5307 18.416 28.68C18.448 29.7147 18.4747 30.7067 18.496 31.656C18.528 32.5947 18.5493 33.352 18.56 33.928C18.5707 34.4613 18.432 34.8613 18.144 35.128C17.856 35.3947 17.5413 35.528 17.2 35.528C16.8587 35.528 16.544 35.3947 16.256 35.128C15.968 34.8613 15.8293 34.4827 15.84 33.992C15.872 33.2987 15.9147 32.664 15.968 32.088C16.0213 31.5013 16.0533 30.888 16.064 30.248C16.064 29.9707 16.032 29.768 15.968 29.64C15.9147 29.512 15.7973 29.448 15.616 29.448C15.3707 29.448 15.088 29.6187 14.768 29.96C14.4587 30.3013 14.0587 30.696 13.568 31.144C13.088 31.592 12.4693 31.9867 11.712 32.328C10.9547 32.6693 10.0053 32.84 8.864 32.84ZM4.48 26.568C4.832 26.568 5.12533 26.4453 5.36 26.2C5.60533 25.944 5.728 25.608 5.728 25.192C5.728 24.744 5.60533 24.3973 5.36 24.152C5.11467 23.9067 4.768 23.784 4.32 23.784C3.936 23.784 3.62133 23.9067 3.376 24.152C3.13067 24.3867 3.008 24.712 3.008 25.128C3.008 25.6187 3.136 25.9813 3.392 26.216C3.65867 26.4507 4.02133 26.568 4.48 26.568ZM6.592 30.28C7.04 30.28 7.39733 30.168 7.664 29.944C7.93067 29.72 8.064 29.3947 8.064 28.968C8.064 28.4987 7.952 28.136 7.728 27.88C7.51467 27.624 7.12533 27.496 6.56 27.496C6.19733 27.496 5.89333 27.6293 5.648 27.896C5.40267 28.152 5.28 28.52 5.28 29C5.28 29.3947 5.38667 29.7093 5.6 29.944C5.81333 30.168 6.144 30.28 6.592 30.28ZM17.216 24.968C17.152 24.968 17.088 24.968 17.024 24.968C16.96 24.968 16.896 24.968 16.832 24.968C16.704 24.968 16.5493 24.8987 16.368 24.76C16.1867 24.6213 16.096 24.392 16.096 24.072C16.096 23.752 16.1707 23.5227 16.32 23.384C16.48 23.2453 16.64 23.176 16.8 23.176C16.864 23.176 16.912 23.176 16.944 23.176C16.976 23.176 17.024 23.176 17.088 23.176C17.3973 23.176 17.6107 23.2453 17.728 23.384C17.856 23.5227 17.92 23.7307 17.92 24.008C17.92 24.392 17.856 24.6427 17.728 24.76C17.6 24.8773 17.4293 24.9467 17.216 24.968ZM8.512 8.648C8.69333 9 8.864 9.35733 9.024 9.72C9.184 10.072 9.33333 10.44 9.472 10.824C9.62133 11.1867 9.65867 11.5387 9.584 11.88C9.52 12.2107 9.30133 12.456 8.928 12.616C8.62933 12.744 8.32533 12.7013 8.016 12.488C7.70667 12.264 7.44533 11.9227 7.232 11.464C7.09333 11.144 6.95467 10.8187 6.816 10.488C6.67733 10.1573 6.54933 9.832 6.432 9.512C6.24 8.94667 6.144 8.48267 6.144 8.12C6.15467 7.75733 6.368 7.50666 6.784 7.368C7.15733 7.24 7.472 7.288 7.728 7.512C7.984 7.72533 8.24533 8.104 8.512 8.648ZM6.336 13.8L4.928 15.56C3.904 14.664 3.15733 13.9547 2.688 13.432C2.22933 12.9093 1.97333 12.4987 1.92 12.2C1.87733 11.8907 1.97333 11.6133 2.208 11.368C2.592 10.984 3.06667 10.968 3.632 11.32C4.208 11.672 5.10933 12.4987 6.336 13.8ZM21.7735 31.176C21.7308 29.384 21.6988 27.56 21.6775 25.704C21.6562 23.8373 21.6348 21.992 21.6135 20.168C22.5415 20.232 23.1975 20.184 23.5815 20.024C23.9762 19.864 24.1735 19.592 24.1735 19.208C24.1735 18.952 24.0935 18.7493 23.9335 18.6C23.7735 18.44 23.5015 18.3333 23.1175 18.28C22.7442 18.216 22.2322 18.1947 21.5815 18.216C21.5815 17.96 21.5815 17.6987 21.5815 17.432C21.5815 17.1653 21.5815 16.904 21.5815 16.648C23.0108 16.68 23.9548 16.5947 24.4135 16.392C24.8722 16.1893 25.1015 15.8907 25.1015 15.496C25.1015 15.2187 24.9948 15.0053 24.7815 14.856C24.5788 14.7067 24.2215 14.616 23.7095 14.584C23.1975 14.5413 22.4935 14.5467 21.5975 14.6C21.5868 14.5253 21.5815 14.4613 21.5815 14.408C21.5815 14.344 21.5815 14.28 21.5815 14.216C21.5815 13.0427 21.8162 12.1733 22.2855 11.608C22.7548 11.032 23.5655 10.7493 24.7175 10.76C25.6988 10.76 26.4242 11.08 26.8935 11.72C27.3628 12.36 27.5548 13.288 27.4695 14.504C27.4055 15.56 27.3148 16.6107 27.1975 17.656C27.0802 18.7013 26.9895 19.7627 26.9255 20.84C26.9148 21.1387 26.9522 21.3573 27.0375 21.496C27.1228 21.624 27.3095 21.7147 27.5975 21.768C28.3975 21.896 29.1975 21.992 29.9975 22.056C30.8082 22.12 31.6295 22.1733 32.4615 22.216C32.7388 22.2267 32.9255 22.1947 33.0215 22.12C33.1282 22.0453 33.1868 21.8427 33.1975 21.512C33.2828 19.8907 33.3522 18.296 33.4055 16.728C33.4695 15.16 33.5388 13.6507 33.6135 12.2C33.6455 11.6347 33.7628 11.192 33.9655 10.872C34.1682 10.5413 34.4988 10.376 34.9575 10.376C35.4375 10.376 35.7682 10.5413 35.9495 10.872C36.1415 11.2027 36.2375 11.6987 36.2375 12.36C36.2588 15.592 36.2535 18.8827 36.2215 22.232C36.1895 25.5813 36.1308 28.936 36.0455 32.296C36.0348 32.936 35.9015 33.4373 35.6455 33.8C35.4002 34.1627 34.9788 34.344 34.3815 34.344C33.7735 34.344 33.3362 34.1413 33.0695 33.736C32.8028 33.3413 32.6748 32.8187 32.6855 32.168C32.7175 31.048 32.7708 29.944 32.8455 28.856C32.9202 27.768 32.9735 26.6747 33.0055 25.576C33.0162 25.352 32.9788 25.1867 32.8935 25.08C32.8188 24.9627 32.6855 24.888 32.4935 24.856C32.3655 24.8347 32.2428 24.8187 32.1255 24.808C32.0082 24.7867 31.8855 24.7707 31.7575 24.76C31.6508 24.7493 31.5388 24.7387 31.4215 24.728C31.3148 24.7173 31.2028 24.7067 31.0855 24.696C30.9682 24.6853 30.8508 24.6747 30.7335 24.664C30.6375 24.6533 30.5415 24.6427 30.4455 24.632C30.3602 24.6213 30.2695 24.6107 30.1735 24.6C30.0882 24.5893 29.9975 24.584 29.9015 24.584C29.6988 24.5627 29.4962 24.5467 29.2935 24.536C29.1015 24.5147 28.8988 24.4987 28.6855 24.488C28.5575 24.4773 28.4295 24.4667 28.3015 24.456C28.1735 24.4347 28.0508 24.424 27.9335 24.424C27.8268 24.4133 27.7148 24.4027 27.5975 24.392C27.4695 24.3813 27.3415 24.3707 27.2135 24.36C27.0855 24.3493 26.9575 24.3387 26.8295 24.328C26.7228 24.3173 26.6055 24.312 26.4775 24.312C26.3602 24.312 26.2428 24.3067 26.1255 24.296C25.8588 24.2747 25.6295 24.328 25.4375 24.456C25.2455 24.584 25.1335 24.7867 25.1015 25.064C25.0055 26.12 24.9202 27.1973 24.8455 28.296C24.7708 29.384 24.6748 30.4187 24.5575 31.4C24.5148 31.8267 24.3762 32.2 24.1415 32.52C23.9068 32.84 23.5655 33 23.1175 33C22.6375 33 22.2962 32.8347 22.0935 32.504C21.9015 32.1627 21.7948 31.72 21.7735 31.176ZM25.5175 23.432C25.2828 23.432 25.1015 23.3627 24.9735 23.224C24.8455 23.0853 24.7815 22.856 24.7815 22.536C24.7815 22.3547 24.8562 22.1947 25.0055 22.056C25.1655 21.9067 25.3788 21.832 25.6455 21.832C25.8588 21.832 26.0348 21.912 26.1735 22.072C26.3122 22.232 26.3815 22.4187 26.3815 22.632C26.3815 22.8667 26.2962 23.0587 26.1255 23.208C25.9655 23.3573 25.7628 23.432 25.5175 23.432ZM36.9095 17.384C37.4428 17.416 37.8588 17.5173 38.1575 17.688C38.4562 17.848 38.6055 18.12 38.6055 18.504C38.6055 18.856 38.4455 19.096 38.1255 19.224C37.8055 19.352 37.3788 19.4427 36.8455 19.496C36.2588 19.528 35.5548 19.56 34.7335 19.592C33.9228 19.6133 33.1015 19.624 32.2695 19.624C31.5548 19.624 31.0482 19.528 30.7495 19.336C30.4615 19.1333 30.3175 18.8347 30.3175 18.44C30.3175 18.0347 30.4882 17.7467 30.8295 17.576C31.1815 17.4053 31.6722 17.32 32.3015 17.32C33.1015 17.32 33.8748 17.3253 34.6215 17.336C35.3788 17.336 36.1415 17.352 36.9095 17.384ZM29.1655 31.432C28.5788 31.432 28.0988 31.2507 27.7255 30.888C27.3628 30.5147 27.1815 30.0027 27.1815 29.352C27.1815 28.9147 27.3308 28.536 27.6295 28.216C27.9282 27.8853 28.4295 27.72 29.1335 27.72C29.6668 27.72 30.0935 27.8747 30.4135 28.184C30.7335 28.4827 30.8935 28.9787 30.8935 29.672C30.8935 30.1627 30.7175 30.5787 30.3655 30.92C30.0135 31.2613 29.6135 31.432 29.1655 31.432ZM36.5895 12.712C37.2828 12.7547 37.7948 12.8667 38.1255 13.048C38.4668 13.2293 38.6375 13.512 38.6375 13.896C38.6375 14.3227 38.4402 14.6053 38.0455 14.744C37.6615 14.872 37.1335 14.92 36.4615 14.888C35.7468 14.856 35.0268 14.8133 34.3015 14.76C33.5868 14.696 32.8668 14.632 32.1415 14.568C31.4908 14.504 31.0162 14.3867 30.7175 14.216C30.4295 14.0347 30.2855 13.7787 30.2855 13.448C30.2855 13.096 30.4455 12.8507 30.7655 12.712C31.0855 12.5627 31.5975 12.4987 32.3015 12.52C33.0268 12.5307 33.7415 12.552 34.4455 12.584C35.1602 12.616 35.8748 12.6587 36.5895 12.712Z" fill="url(#paint0_radial_54_127)" fill-opacity="0.5"/>
<defs>
<radialGradient id="paint0_radial_54_127" cx="0" cy="0" r="1" gradientUnits="userSpaceOnUse" gradientTransform="translate(19.5 20.5) rotate(90) scale(20.5 19.5)">
<stop stop-color="#FF4081"/>
<stop offset="0.5" stop-color="#FF1010"/>
<stop offset="1" stop-color="#14FEFE"/>
</radialGradient>
</defs>
</svg>
